<svg xmlns="http://www.w3.org/2000/svg" width="84" height="20" viewBox="0 0 84 20" fill="none">
<path d="M3.34961 7.73252H10.4355H14.7386V3.4681L3.34961 7.73252Z" fill="#FF9D28"/>
<path d="M14.7383 3.4681V18.5417L20.1236 1.45828L14.7383 3.4681Z" fill="#68C5ED"/>
<path d="M14.7386 7.73251H10.4355L14.7386 18.5288V7.73251V7.73251Z" fill="#044D80"/>
<path d="M3.34961 7.73251L11.5435 10.5025L10.4355 7.73251H3.34961Z" fill="#E54747"/>
<path d="M29.4523 14.5607C29.3879 14.6252 29.2848 14.7025 29.1431 14.7926C29.0014 14.8828 28.8081 14.9859 28.5762 15.0761C28.3443 15.1663 28.0609 15.2564 27.713 15.3209C27.3781 15.3853 26.9916 15.4239 26.5535 15.4239C25.7161 15.4239 24.9818 15.2822 24.3633 15.0245C23.7449 14.754 23.2425 14.3804 22.8431 13.8908C22.4437 13.4012 22.1474 12.8344 21.967 12.1773C21.7738 11.5202 21.6836 10.7859 21.6836 10C21.6836 9.21411 21.7867 8.47976 21.9928 7.80982C22.1989 7.13988 22.4953 6.56012 22.9075 6.07055C23.3069 5.58098 23.8222 5.19448 24.4278 4.92393C25.0333 4.65338 25.7548 4.51166 26.5793 4.51166C26.9787 4.51166 27.3523 4.55031 27.6744 4.61472C27.9965 4.69202 28.2928 4.76932 28.5376 4.87239C28.7824 4.97546 28.9885 5.07853 29.1431 5.1816C29.3106 5.28467 29.4265 5.38773 29.5038 5.45215C29.594 5.52945 29.6842 5.63252 29.7486 5.74847C29.813 5.86442 29.8517 5.99325 29.8517 6.12209C29.8517 6.32822 29.7744 6.53435 29.6198 6.74049C29.4652 6.94662 29.2977 7.13988 29.1045 7.32024C28.9756 7.19141 28.8339 7.06258 28.6793 6.93374C28.5247 6.80491 28.3443 6.68896 28.1511 6.58589C27.9578 6.48282 27.7388 6.40552 27.494 6.34111C27.2492 6.27669 26.9787 6.23804 26.6695 6.23804C26.1413 6.23804 25.6903 6.3411 25.3296 6.56012C24.9689 6.77914 24.6854 7.04969 24.4664 7.39755C24.2474 7.7454 24.0928 8.1319 24.0026 8.56994C23.9124 9.00798 23.8609 9.4589 23.8609 9.9227C23.8609 10.4123 23.9124 10.8761 24.0026 11.327C24.0928 11.7779 24.2603 12.1644 24.4922 12.5123C24.7241 12.8601 25.0204 13.1307 25.394 13.3368C25.7676 13.5429 26.2186 13.646 26.7726 13.646C27.0689 13.646 27.3265 13.6074 27.5713 13.5429C27.8161 13.4656 28.0351 13.3755 28.2155 13.2724C28.4087 13.1693 28.5633 13.0534 28.7051 12.9503C28.8468 12.8344 28.9627 12.7313 29.0529 12.654C29.1173 12.7313 29.1818 12.8215 29.2719 12.9245C29.3621 13.0276 29.4394 13.1436 29.5038 13.2466C29.5811 13.3626 29.6327 13.4785 29.6971 13.5945C29.7486 13.7104 29.7744 13.8135 29.7744 13.9037C29.7744 14.0454 29.7486 14.1485 29.6971 14.2515C29.6456 14.3417 29.5554 14.4448 29.4523 14.5607ZM37.4916 13.3626C37.4916 14.1871 37.6075 14.7926 37.8523 15.1663C37.6591 15.2436 37.4916 15.2951 37.3241 15.3209C37.1566 15.3466 36.9891 15.3724 36.8087 15.3724C36.4351 15.3724 36.1517 15.2951 35.9584 15.1534C35.7652 15.0117 35.6364 14.7926 35.5848 14.5221C35.3529 14.7669 35.0566 14.973 34.6701 15.1405C34.2965 15.308 33.8327 15.3853 33.2916 15.3853C33.0081 15.3853 32.7247 15.3466 32.4413 15.2693C32.1578 15.192 31.9002 15.0632 31.6683 14.8828C31.4364 14.7025 31.256 14.4706 31.1014 14.1742C30.9597 13.8779 30.8824 13.5172 30.8824 13.092C30.8824 12.5638 31.0112 12.1258 31.2689 11.7908C31.5265 11.4558 31.8486 11.1982 32.2351 11.0049C32.6216 10.8117 33.0468 10.6828 33.4848 10.6055C33.9357 10.5282 34.348 10.4896 34.7216 10.4638C34.8505 10.4509 34.9664 10.4509 35.0952 10.4509H35.4302V10.1675C35.4302 9.7681 35.3272 9.48466 35.1081 9.3043C34.8891 9.13681 34.5413 9.04663 34.0646 9.04663C33.6137 9.04663 33.2143 9.12393 32.8664 9.26564C32.5186 9.40736 32.1707 9.57485 31.8357 9.7681C31.694 9.58773 31.5652 9.39448 31.4879 9.17546C31.3977 8.95644 31.3591 8.80184 31.3591 8.69877C31.3591 8.55706 31.4364 8.41534 31.6038 8.27362C31.7713 8.1319 31.9903 8.01595 32.2738 7.9C32.5572 7.78405 32.8793 7.70675 33.2529 7.62945C33.6137 7.56503 34.0002 7.52638 34.4124 7.52638C34.9793 7.52638 35.456 7.57792 35.8425 7.69387C36.229 7.80982 36.5511 7.99018 36.7959 8.22208C37.0406 8.46687 37.221 8.76319 37.3241 9.12392C37.4272 9.48466 37.4787 9.90982 37.4787 10.3865L37.4916 13.3626ZM35.4818 11.546H35.2627C35.1854 11.546 35.121 11.546 35.0437 11.5589C34.786 11.5847 34.5284 11.6104 34.2707 11.6491C34.013 11.6877 33.7811 11.765 33.5879 11.8681C33.3946 11.9712 33.2272 12.1129 33.0983 12.2804C32.9695 12.4479 32.9051 12.6669 32.9051 12.9245C32.9051 13.2209 32.9824 13.4656 33.1499 13.6718C33.3173 13.8779 33.6008 13.981 34.0002 13.981C34.1934 13.981 34.3867 13.9552 34.567 13.9037C34.7474 13.8521 34.902 13.7877 35.0437 13.6975C35.1854 13.6074 35.2885 13.5172 35.3658 13.427C35.4431 13.3239 35.4818 13.2337 35.4818 13.1564V11.546ZM41.3953 8.45399C41.5627 8.26074 41.8204 8.0546 42.1811 7.84847C42.5419 7.64233 42.9799 7.53926 43.521 7.53926C43.9075 7.53926 44.2811 7.60368 44.629 7.73252C44.9768 7.86135 45.286 8.08037 45.5566 8.3638C45.8272 8.66012 46.0462 9.04663 46.2008 9.52331C46.3683 10 46.4456 10.5926 46.4456 11.3012C46.4456 12.1129 46.3554 12.7957 46.1621 13.3239C45.9689 13.8521 45.737 14.2773 45.4406 14.5736C45.1443 14.8828 44.8094 15.1018 44.4486 15.2307C44.0879 15.3595 43.7143 15.4239 43.3535 15.4239C43.0572 15.4239 42.7867 15.3853 42.5676 15.3209C42.3486 15.2564 42.1554 15.1791 42.0008 15.089C41.8462 15.0117 41.7302 14.9215 41.64 14.8442C41.5627 14.7669 41.4983 14.7025 41.4854 14.6767V18.5417H39.3468V7.77116C39.3983 7.75828 39.4627 7.7454 39.54 7.7454C39.6045 7.73252 39.6818 7.73251 39.7591 7.71963C39.8492 7.71963 39.9394 7.70675 40.0554 7.70675C40.4032 7.70675 40.6995 7.75828 40.9443 7.87423C41.1762 7.99019 41.3308 8.18344 41.3953 8.45399ZM44.2296 11.3528C44.2296 11.0436 44.2038 10.7472 44.1523 10.4767C44.1008 10.2061 44.0106 9.97423 43.8946 9.7681C43.7787 9.57485 43.6112 9.42025 43.4051 9.3043C43.1989 9.18835 42.9541 9.13681 42.6578 9.13681C42.2198 9.13681 41.9106 9.22699 41.7431 9.38159C41.5756 9.54908 41.4854 9.72945 41.4854 9.93558V13.2724C41.5627 13.3626 41.7173 13.4528 41.9364 13.5687C42.1554 13.6847 42.4002 13.7362 42.6836 13.7362C43.2118 13.7362 43.5983 13.5301 43.856 13.1049C44.1008 12.6926 44.2296 12.1129 44.2296 11.3528ZM48.0946 14.0583C48.0173 13.8521 47.9787 13.6331 47.9529 13.4012C47.9272 13.1693 47.9272 12.9374 47.9272 12.7055V5.42638C48.0045 5.4135 48.0818 5.40061 48.1591 5.40061C48.2364 5.38773 48.3137 5.38773 48.391 5.37485C48.4683 5.37485 48.5584 5.36197 48.6357 5.36197C48.8032 5.36197 48.9707 5.37485 49.1382 5.4135C49.3057 5.43926 49.4603 5.50368 49.5891 5.60675C49.7308 5.69693 49.8339 5.82577 49.9241 5.99325C50.0014 6.16074 50.0529 6.36687 50.0529 6.62454V7.7454H52.256V9.33006H50.0658V12.6798C50.0658 13.4141 50.3621 13.7748 50.9548 13.7748C51.0965 13.7748 51.2382 13.7491 51.367 13.7104C51.4959 13.6589 51.6118 13.6074 51.7149 13.5558C51.8179 13.5043 51.9081 13.4399 51.9854 13.3755C52.0627 13.311 52.1143 13.2595 52.1529 13.2337C52.3075 13.4656 52.4364 13.6589 52.5137 13.8264C52.591 13.9939 52.6425 14.1485 52.6425 14.3031C52.6425 14.4448 52.591 14.5736 52.475 14.7025C52.3591 14.8313 52.2045 14.9601 52.0112 15.0632C51.8179 15.1791 51.5732 15.2693 51.2897 15.3337C51.0063 15.3982 50.6971 15.4368 50.3621 15.4368C49.7179 15.4368 49.2026 15.308 48.8419 15.0632C48.5069 14.7926 48.2492 14.4706 48.0946 14.0583ZM57.667 13.8521C57.9247 13.8521 58.1566 13.8264 58.3627 13.762C58.556 13.7104 58.7364 13.6331 58.9038 13.5558C59.0584 13.4785 59.2002 13.3755 59.3161 13.2853C59.4321 13.1822 59.5351 13.092 59.6253 13.0147C59.7541 13.1693 59.883 13.3755 60.0247 13.6202C60.1664 13.865 60.2308 14.0712 60.2308 14.2258C60.2308 14.4577 60.102 14.6638 59.8443 14.8571C59.6253 15.0245 59.3161 15.1663 58.9038 15.2951C58.5045 15.411 58.0278 15.4755 57.4867 15.4755C56.9971 15.4755 56.5075 15.411 56.0308 15.2822C55.5541 15.1534 55.129 14.9344 54.7554 14.6252C54.3818 14.3159 54.0854 13.8908 53.8535 13.3626C53.6216 12.8344 53.5057 12.1644 53.5057 11.3656C53.5057 10.7086 53.6087 10.1417 53.8149 9.66503C54.021 9.18834 54.2916 8.78896 54.6265 8.47975C54.9615 8.17055 55.348 7.93865 55.786 7.78405C56.2112 7.64233 56.6492 7.56503 57.1002 7.56503C57.6799 7.56503 58.1824 7.65521 58.5946 7.83558C59.0069 8.01595 59.329 8.26074 59.5867 8.56994C59.8443 8.87914 60.0247 9.227 60.1406 9.62638C60.2566 10.0258 60.3081 10.438 60.3081 10.8761V11.0951C60.3081 11.1853 60.3081 11.2626 60.2953 11.3656C60.2953 11.4558 60.2824 11.546 60.2824 11.6362C60.2824 11.7264 60.2695 11.7908 60.2566 11.8423H55.6314C55.6701 12.4221 55.8505 12.8988 56.1726 13.2853C56.4818 13.6589 56.9842 13.8521 57.667 13.8521ZM58.3885 10.6699C58.3885 10.1675 58.2854 9.75521 58.0922 9.44601C57.8989 9.13681 57.5511 8.96933 57.0486 8.96933C56.6106 8.96933 56.2756 9.12393 56.0179 9.42025C55.7603 9.71657 55.6314 10.1288 55.6314 10.6699H58.3885ZM64.0314 8.49264C64.0959 8.40245 64.1732 8.29939 64.2762 8.18344C64.3793 8.06749 64.5081 7.96442 64.6627 7.87423C64.8173 7.78405 64.9848 7.70675 65.1652 7.64233C65.3456 7.57791 65.5388 7.55215 65.7578 7.55215C65.8867 7.55215 66.0155 7.56503 66.1572 7.57791C66.2989 7.60368 66.4278 7.64233 66.5437 7.69387C66.6597 7.7454 66.7627 7.8227 66.84 7.92577C66.9173 8.02883 66.956 8.14478 66.956 8.2865C66.956 8.5184 66.9044 8.77607 66.7885 9.07239C66.6725 9.36871 66.5566 9.62638 66.4407 9.83251C66.2603 9.6908 66.0799 9.57485 65.9124 9.49755C65.7321 9.42025 65.5259 9.38159 65.2811 9.38159C64.9591 9.38159 64.6885 9.47178 64.4695 9.66503C64.2505 9.85828 64.1345 10.0773 64.1345 10.3479V15.4239H61.9959V7.75828C62.0474 7.7454 62.1118 7.73252 62.1891 7.73252C62.2535 7.71963 62.3308 7.71963 62.4081 7.70675C62.4854 7.70675 62.5885 7.69387 62.7045 7.69387C63.0394 7.69387 63.3357 7.75828 63.5805 7.88712C63.8124 8.02884 63.967 8.22209 64.0314 8.49264ZM70.0995 8.49264C70.164 8.40245 70.2413 8.29939 70.3443 8.18344C70.4474 8.06749 70.5762 7.96442 70.7308 7.87423C70.8854 7.78405 71.0529 7.70675 71.2333 7.64233C71.4137 7.57791 71.6069 7.55215 71.8259 7.55215C71.9548 7.55215 72.0836 7.56503 72.2253 7.57791C72.367 7.60368 72.4959 7.64233 72.6118 7.69387C72.7278 7.7454 72.8308 7.8227 72.9081 7.92577C72.9854 8.02883 73.0241 8.14478 73.0241 8.2865C73.0241 8.5184 72.9726 8.77607 72.8566 9.07239C72.7406 9.36871 72.6247 9.62638 72.5087 9.83251C72.3284 9.6908 72.148 9.57485 71.9805 9.49755C71.8002 9.42025 71.594 9.38159 71.3492 9.38159C71.0272 9.38159 70.7566 9.47178 70.5376 9.66503C70.3186 9.85828 70.2026 10.0773 70.2026 10.3479V15.4239H68.064V7.75828C68.1155 7.7454 68.1799 7.73252 68.2572 7.73252C68.3216 7.71963 68.3989 7.71963 68.4762 7.70675C68.5535 7.70675 68.6566 7.69387 68.7725 7.69387C69.1075 7.69387 69.4038 7.75828 69.6486 7.88712C69.8805 8.02884 70.0351 8.22209 70.0995 8.49264ZM80.2903 13.3626C80.2903 14.1871 80.4063 14.7926 80.6511 15.1663C80.4578 15.2436 80.2903 15.2951 80.1229 15.3209C79.9554 15.3466 79.7879 15.3724 79.6075 15.3724C79.2339 15.3724 78.9505 15.2951 78.7572 15.1534C78.564 15.0117 78.4351 14.7926 78.3836 14.5221C78.1517 14.7669 77.8554 14.973 77.4689 15.1405C77.0952 15.308 76.6314 15.3853 76.0903 15.3853C75.8069 15.3853 75.5235 15.3466 75.24 15.2693C74.9566 15.192 74.6989 15.0632 74.467 14.8828C74.2351 14.7025 74.0548 14.4706 73.9002 14.1742C73.7584 13.8779 73.6811 13.5172 73.6811 13.092C73.6811 12.5638 73.81 12.1258 74.0676 11.7908C74.3253 11.4558 74.6474 11.1982 75.0339 11.0049C75.4204 10.8117 75.8456 10.6828 76.2836 10.6055C76.7345 10.5282 77.1468 10.4896 77.5204 10.4638C77.6492 10.4509 77.7652 10.4509 77.894 10.4509H78.229V10.1675C78.229 9.7681 78.1259 9.48466 77.9069 9.3043C77.6879 9.13681 77.34 9.04663 76.8633 9.04663C76.4124 9.04663 76.013 9.12393 75.6652 9.26564C75.3173 9.40736 74.9695 9.57485 74.6345 9.7681C74.4928 9.58773 74.364 9.39448 74.2867 9.17546C74.1965 8.95644 74.1578 8.80184 74.1578 8.69877C74.1578 8.55706 74.2351 8.41534 74.4026 8.27362C74.5701 8.1319 74.7891 8.01595 75.0725 7.9C75.356 7.78405 75.6781 7.70675 76.0517 7.62945C76.4124 7.56503 76.7989 7.52638 77.2112 7.52638C77.7781 7.52638 78.2548 7.57792 78.6413 7.69387C79.0278 7.80982 79.3498 7.99018 79.5946 8.22208C79.8394 8.46687 80.0198 8.76319 80.1229 9.12392C80.2259 9.48466 80.2775 9.90982 80.2775 10.3865L80.2903 13.3626ZM78.2805 11.546H78.0615C77.9842 11.546 77.9198 11.546 77.8425 11.5589C77.5848 11.5847 77.3271 11.6104 77.0695 11.6491C76.8118 11.6877 76.5799 11.765 76.3867 11.8681C76.1934 11.9712 76.0259 12.1129 75.8971 12.2804C75.7683 12.4479 75.7038 12.6669 75.7038 12.9245C75.7038 13.2209 75.7811 13.4656 75.9486 13.6718C76.1161 13.8779 76.3995 13.981 76.7989 13.981C76.9922 13.981 77.1854 13.9552 77.3658 13.9037C77.5462 13.8521 77.7008 13.7877 77.8425 13.6975C77.9842 13.6074 78.0873 13.5172 78.1646 13.427C78.2419 13.3239 78.2805 13.2337 78.2805 13.1564V11.546Z" fill="#044D80"/>
</svg>